<?xml version="1.0" encoding="UTF-8" standalone="no"?>
<!-- Created with Inkscape (http://www.inkscape.org/) -->

<svg
   width="83.591446mm"
   height="73.517998mm"
   viewBox="0 0 83.591446 73.517998"
   version="1.1"
   id="svg1"
   sodipodi:docname="logo.svg"
   inkscape:version="1.3 (0e150ed6c4, 2023-07-21)"
   xmlns:inkscape="http://www.inkscape.org/namespaces/inkscape"
   xmlns:sodipodi="http://sodipodi.sourceforge.net/DTD/sodipodi-0.dtd"
   xmlns="http://www.w3.org/2000/svg"
   xmlns:svg="http://www.w3.org/2000/svg">
  <sodipodi:namedview
     id="namedview1"
     pagecolor="#ffffff"
     bordercolor="#000000"
     borderopacity="0.25"
     inkscape:showpageshadow="2"
     inkscape:pageopacity="0.0"
     inkscape:pagecheckerboard="0"
     inkscape:deskcolor="#d1d1d1"
     inkscape:document-units="mm"
     showgrid="true"
     showguides="true"
     inkscape:zoom="1.3843855"
     inkscape:cx="165.77752"
     inkscape:cy="111.60186"
     inkscape:window-width="1902"
     inkscape:window-height="973"
     inkscape:window-x="32"
     inkscape:window-y="0"
     inkscape:window-maximized="0"
     inkscape:current-layer="layer2">
    <inkscape:grid
       id="grid11"
       units="mm"
       originx="-217.02277"
       originy="-327.4274"
       spacingx="0.99999998"
       spacingy="1"
       empcolor="#0099e5"
       empopacity="0.30196078"
       color="#0099e5"
       opacity="0.14901961"
       empspacing="5"
       dotted="false"
       gridanglex="30"
       gridanglez="30"
       visible="true" />
  </sodipodi:namedview>
  <defs
     id="defs1" />
  <g
     inkscape:groupmode="layer"
     id="layer2"
     inkscape:label="Layer 2"
     transform="translate(-57.420608,-86.631836)">
    <path
       id="path11"
       style="fill:#800000;stroke-width:0.272334"
       d="M 121.09734 89.303508 C 108.25144 89.335338 95.40553 89.367269 82.559642 89.399109 C 82.554412 89.408722 82.549368 89.418435 82.544139 89.428048 C 93.026348 89.402067 103.50859 89.375986 113.9908 89.350017 C 120.69667 100.60844 127.40255 111.86731 134.10843 123.12573 C 132.23524 126.5693 130.36183 130.01279 128.48862 133.45637 L 124.35761 133.45637 L 124.30438 119.37402 L 124.37569 108.33439 L 124.37569 106.92414 L 115.64651 106.92414 L 115.63204 107.91116 L 115.73229 117.96377 L 115.63773 133.45637 L 111.09123 133.45637 C 110.03754 133.12103 109.03909 132.68863 108.10279 132.14637 C 107.04556 131.51514 106.0597 130.75643 105.14534 129.87002 C 108.02175 129.66857 110.18899 128.00322 111.64624 124.87395 C 112.55107 122.92654 113.00326 120.85159 113.00326 118.649 C 113.00326 116.58073 112.59844 114.60662 111.78887 112.72637 C 110.91261 110.69838 109.72186 109.24095 108.21699 108.35454 C 107.29311 107.8039 106.17395 107.4279 104.85957 107.22644 C 103.54519 107.02499 101.60261 106.92414 99.030988 106.92414 L 93.287669 106.92414 L 93.316091 119.09239 L 93.273199 126.94876 L 93.245294 133.45637 L 91.58028 133.45637 L 80.529275 105.27204 L 79.415131 107.99177 L 70.771731 128.52024 C 69.949962 130.48121 69.647768 131.21869 69.328408 131.99651 C 67.596621 129.08898 65.864656 126.18153 64.132859 123.27404 C 70.269913 111.99211 76.407086 100.71002 82.544139 89.428048 C 80.180459 89.433907 77.816774 89.439759 75.453099 89.445618 C 69.310817 100.7372 63.168078 112.02896 57.0258 123.32055 C 63.731692 134.57897 70.43806 145.83785 77.143951 157.09627 C 89.989845 157.06447 102.83575 157.03247 115.68165 157.00067 C 115.68688 156.99105 115.69192 156.98134 115.69715 156.97173 C 105.21494 156.9977 94.732708 157.02381 84.250494 157.04976 C 80.325026 150.45934 76.399455 143.86885 72.473952 137.27836 L 126.40968 137.27836 C 122.8388 143.84279 119.26802 150.40729 115.69715 156.97173 C 118.06084 156.96587 120.42455 156.96001 122.78819 156.95416 C 128.9305 145.66257 135.07323 134.37081 141.21549 123.07922 C 134.50961 111.82084 127.80321 100.56193 121.09734 89.303508 z M 102.04527 108.33439 C 104.31211 108.37468 106.06959 108.69016 107.3173 109.2811 C 108.56501 109.87204 109.60321 110.88624 110.43184 112.32329 C 111.51764 114.17668 112.06017 116.27853 112.06017 118.62885 C 112.06017 120.01218 111.84591 121.36876 111.41731 122.69837 C 110.96014 124.14885 110.30305 125.35752 109.44586 126.3245 C 108.09338 127.869 106.43611 128.64116 104.47407 128.64116 L 103.78832 128.621 C 103.13113 127.9495 102.51206 127.21767 101.93107 126.42527 L 101.9166 125.47804 L 101.9166 121.83175 L 102.04527 108.33439 z M 76.086135 118.46762 L 80.17219 129.32587 L 75.872194 129.38633 L 71.586151 129.30572 L 73.586029 124.41041 L 76.086135 118.46762 z M 101.93107 128.21793 C 103.87407 130.38022 105.59797 131.97885 107.10285 133.01298 C 107.35022 133.18189 107.57133 133.31056 107.80358 133.45637 L 101.94554 133.45637 L 101.94554 132.46883 L 101.93107 129.04423 L 101.93107 128.21793 z M 70.957249 130.69581 L 71.671417 130.71597 L 75.900616 130.73612 L 80.70084 130.73612 L 81.70233 133.45637 L 70.197605 133.45637 C 70.136849 133.35436 70.075944 133.25245 70.015188 133.15044 L 70.957249 130.69581 z " />
  </g>
  <g
     inkscape:groupmode="layer"
     id="layer3"
     inkscape:label="Layer 3"
     transform="translate(-57.420608,-86.631836)" />
</svg>
